<svg width="28" height="26" fill="none" xmlns="http://www.w3.org/2000/svg"><path d="M5.809 5.417h19.716l-2.058 8.45-17.658 1.517V5.417z" fill="url(#paint0_linear)"/><path d="M7.25 19.067c-.932 0-1.688-.776-1.688-1.734l18.685-1.669c.432-.038.791-.352.895-.784.57-2.385 2.358-9.91 2.358-10.547a.856.856 0 00-.844-.866H5.563v-2.6A.856.856 0 004.718 0H1.344A.856.856 0 00.5.867c0 .478.378.866.844.866h2.531v15.6c0 1.915 1.511 3.467 3.375 3.467h15.255s-.64-.819-.146-.26l.146.26-1.755-1.56-13.5-.173zM5.562 5.2h20.25l-2.157 8.864L5.562 15.6V5.2z" fill="#000"/><path d="M24.04 22.62c0 1.867-1.473 3.38-3.29 3.38s-3.29-1.513-3.29-3.38 1.473-3.38 3.29-3.38 3.29 1.513 3.29 3.38zm-4.899 0c0 .912.72 1.652 1.609 1.652.888 0 1.609-.74 1.609-1.652 0-.913-.72-1.652-1.609-1.652-.888 0-1.609.74-1.609 1.652zm-6.997 0c0 1.867-1.473 3.38-3.29 3.38-1.818 0-3.291-1.513-3.291-3.38s1.473-3.38 3.29-3.38c1.818 0 3.29 1.513 3.29 3.38zm-4.9 0c0 .912.72 1.652 1.61 1.652.888 0 1.608-.74 1.608-1.652 0-.913-.72-1.652-1.609-1.652-.888 0-1.608.74-1.608 1.652z" fill="#000"/><defs><linearGradient id="paint0_linear" x1="-5.159" y1="-1.504" x2="27.925" y2="6.272" gradientUnits="userSpaceOnUse"><stop stop-color="#F64D4D"/><stop offset="1" stop-color="#4D5EF6"/></linearGradient></defs></svg>