<svg width="28" height="26" fill="none" xmlns="http://www.w3.org/2000/svg"><path d="M7.622 2.302c2.438.27 4.469 2.03 6.364 4.333 1.896-2.302 4.076-4.333 6.785-4.333 3.52 0 5.126 3.194 4.726 5.91-.406 2.756-1.477 3.163-6.23 8.986l-4.603 5.416c-.898.957-.457.957-1.354 0l-1.625-2.031-1.355-1.625-1.49-1.76c-4.997-5.823-6.155-7.313-6.35-8.986-.407-3.473 1.895-6.27 5.132-5.91z" fill="url(#paint0_linear)"/><path d="M20.77.258c-2.82 0-4.955 1.655-6.77 3.385C12.27 1.807 10.05.258 7.23.258 3.255.258.457 3.674.457 7.398c0 1.999.819 3.438 1.715 4.79l10.523 12.616c1.181 1.25 1.404 1.25 2.585 0l10.547-12.616c1.053-1.352 1.714-2.791 1.714-4.79 0-3.724-2.798-7.14-6.771-7.14zm3.386 11.58L14 23.956 3.844 11.788C2.629 10.099 2.15 8.96 2.15 7.398c0-2.91 2.078-5.529 5.078-5.553 2.468-.02 5.265 2.5 6.771 4.4 1.466-1.834 4.303-4.4 6.77-4.4 2.922 0 5.079 2.644 5.079 5.554 0 1.561-.378 2.785-1.693 4.439z" fill="#000"/><defs><linearGradient id="paint0_linear" x1="-10.415" y1="-12.355" x2="29.829" y2="-7.108" gradientUnits="userSpaceOnUse"><stop stop-color="#F64D4D"/><stop offset="1" stop-color="#4D5EF6"/></linearGradient></defs></svg>