<svg width="188" height="64" fill="none" xmlns="http://www.w3.org/2000/svg"><path d="M0 12.834v29.487h9.739v-7.709H12.9c7.504 0 13.238-2.611 13.238-10.868 0-8.298-5.734-10.91-13.238-10.91H0zm16.484 10.91c0 2.022-1.434 2.865-3.668 2.865H9.738v-5.771h3.078c2.234 0 3.668.842 3.668 2.906zm12.582-10.91v29.487H51.41v-8.51H38.805V12.835h-9.739zM61.643 42.32l1.306-3.917h10.203l1.264 3.918h9.865L73.278 12.834H62.823L51.778 42.321h9.865zm5.607-17.228c.295-1.095.59-2.274.8-3.791a23.33 23.33 0 00.844 3.791l2.066 6.277h-5.776l2.066-6.277zm16.38 2.78c0 10.742 8.052 15.123 16.399 15.123 3.12 0 6.029-.59 8.642-1.77v-8.888c-1.517 1.348-4.342 2.107-7.377 2.107-3.879 0-7.673-1.938-7.673-6.572 0-5.265 3.837-7.287 7.884-7.287 2.613 0 5.312.884 6.956 2.022v-8.678c-2.614-1.18-5.649-1.769-8.685-1.769-8.094 0-16.188 4.507-16.146 15.712zm28.599-15.038v29.487h22.597V34.57h-12.858v-3.496h11.087v-7.161h-11.087V20.5h12.605v-7.667h-22.344zM6.295 52.844h-2.68v7.257h-.66v-7.257H.278v-.564h6.016v.564zm.28 4.265c0-.559.108-1.062.323-1.51.218-.447.524-.794.918-1.041a2.473 2.473 0 011.348-.376c.774 0 1.4.272 1.88.816.48.54.72 1.259.72 2.154v.134a3.45 3.45 0 01-.328 1.52 2.407 2.407 0 01-.913 1.037 2.511 2.511 0 01-1.348.365c-.77 0-1.396-.27-1.88-.811-.48-.544-.72-1.264-.72-2.16v-.128zm.645.177c0 .695.18 1.266.537 1.713.362.444.834.666 1.418.666.58 0 1.05-.221 1.407-.666.362-.447.543-1.036.543-1.767v-.123c0-.444-.082-.85-.247-1.22a1.968 1.968 0 00-.693-.853 1.76 1.76 0 00-1.02-.306c-.574 0-1.04.225-1.402.676-.362.448-.543 1.035-.543 1.762v.118zm6 2.815v-5.812h2.133c.738 0 1.304.133 1.697.398.394.26.591.646.591 1.154 0 .29-.087.55-.263.78-.175.225-.431.39-.768.493.38.072.684.235.913.489.233.254.35.55.35.886 0 .512-.19.91-.57 1.193-.376.279-.91.419-1.6.419H13.22zm.64-2.675v2.137h1.864c.483 0 .856-.093 1.117-.279.261-.186.392-.455.392-.806a.901.901 0 00-.392-.768c-.261-.19-.634-.284-1.117-.284H13.86zm0-.537h1.627c1.01-.015 1.515-.358 1.515-1.032 0-.354-.14-.612-.419-.773-.276-.165-.686-.247-1.23-.247H13.86v2.052zm9.17 3.212c-.065-.183-.106-.453-.124-.811a2.26 2.26 0 01-.864.682 2.649 2.649 0 01-1.107.236c-.559 0-1.011-.156-1.359-.467a1.526 1.526 0 01-.515-1.182c0-.566.234-1.013.703-1.343.473-.33 1.13-.494 1.971-.494h1.166v-.66c0-.416-.13-.742-.387-.978-.254-.24-.627-.36-1.117-.36-.448 0-.818.115-1.112.344-.294.229-.44.505-.44.827l-.645-.005c0-.462.215-.861.645-1.198.43-.34.957-.51 1.584-.51.648 0 1.159.163 1.53.488.377.323.57.774.581 1.354v2.75c0 .562.06.983.177 1.262v.065h-.687zm-2.02-.462c.43 0 .813-.104 1.15-.312.34-.207.587-.485.74-.832v-1.279h-1.149c-.64.008-1.142.126-1.504.355-.361.225-.542.537-.542.934 0 .326.12.597.36.811.243.215.558.323.945.323zm8.977-2.385c0 .906-.2 1.626-.602 2.16-.401.529-.938.794-1.611.794-.795 0-1.404-.28-1.826-.838v2.965h-.64v-8.046h.597l.032.822c.419-.62 1.026-.93 1.82-.93.695 0 1.24.264 1.633.79.398.527.597 1.257.597 2.192v.09zm-.645-.113c0-.741-.152-1.326-.456-1.756-.305-.43-.73-.645-1.273-.645-.394 0-.733.095-1.016.285-.282.19-.5.465-.65.827v2.788c.155.333.375.587.661.762.287.176.625.264 1.015.264.541 0 .962-.215 1.262-.645.305-.433.457-1.06.457-1.88zm2.837-.741h1.676c.43 0 .806.079 1.128.236.326.154.571.369.736.645.168.276.252.596.252.961 0 .562-.193 1.014-.58 1.354-.383.336-.902.505-1.557.505H31.54v-5.812h.64v2.11zm0 .548v2.61h1.665c.462 0 .824-.116 1.085-.349.265-.233.398-.551.398-.956 0-.387-.13-.698-.387-.935-.254-.24-.603-.363-1.047-.37h-1.714zm5.764 3.153h-.645v-5.812h.645v5.812zm9.657-5.812h.644v5.812H47.6v-4.775L44.463 60.1h-.64v-5.812h.64v4.78l3.137-4.78zm5.774 1.536c0-.35-.131-.621-.393-.81-.26-.19-.62-.285-1.079-.285-.415 0-.772.107-1.069.322-.294.211-.44.48-.44.805h-.64c0-.483.206-.882.618-1.197.416-.315.926-.473 1.531-.473.666 0 1.185.143 1.558.43.372.286.558.693.558 1.219 0 .28-.086.532-.258.757-.171.226-.422.401-.752.527.745.204 1.118.666 1.118 1.385 0 .523-.203.937-.607 1.241-.405.304-.942.457-1.612.457-.648 0-1.185-.163-1.611-.49-.426-.325-.64-.751-.64-1.278h.645c0 .351.154.645.462.881.312.233.693.35 1.144.35.49 0 .874-.102 1.15-.307a.996.996 0 00.419-.843c0-.39-.127-.671-.382-.843-.254-.172-.642-.258-1.165-.258h-.886v-.559h.993c.892-.021 1.338-.365 1.338-1.03zm8.076.607h-1.074v3.669h-.66v-7.82h.66v3.587h1.042l3.024-3.588h.833l-3.212 3.846 3.448 3.975h-.822l-3.238-3.669zm4.664.677c0-.559.107-1.062.322-1.51.219-.447.525-.794.919-1.041a2.468 2.468 0 011.348-.376c.773 0 1.4.272 1.88.816.48.54.72 1.259.72 2.154v.134a3.45 3.45 0 01-.328 1.52 2.42 2.42 0 01-.913 1.037 2.51 2.51 0 01-1.349.365c-.77 0-1.396-.27-1.88-.811-.48-.544-.72-1.264-.72-2.16v-.128zm.644.177c0 .695.18 1.266.538 1.713.361.444.834.666 1.417.666.58 0 1.05-.221 1.408-.666.361-.447.542-1.036.542-1.767v-.123c0-.444-.082-.85-.247-1.22a1.967 1.967 0 00-.693-.853 1.76 1.76 0 00-1.02-.306c-.573 0-1.04.225-1.402.676-.362.448-.543 1.035-.543 1.762v.118zm10.604-.032c0 .906-.2 1.626-.601 2.16-.401.529-.938.794-1.612.794-.795 0-1.403-.28-1.826-.838v2.965h-.639v-8.046h.596l.032.822c.42-.62 1.026-.93 1.821-.93.695 0 1.24.264 1.633.79.397.527.596 1.257.596 2.192v.09zm-.644-.113c0-.741-.153-1.326-.457-1.756-.304-.43-.728-.645-1.273-.645-.394 0-.732.095-1.015.285-.283.19-.5.465-.65.827v2.788c.154.333.374.587.66.762.287.176.626.264 1.016.264.54 0 .961-.215 1.262-.645.305-.433.457-1.06.457-1.88zm4.378 3.067c-.494 0-.941-.122-1.342-.365a2.499 2.499 0 01-.93-1.015 3.19 3.19 0 01-.333-1.467v-.23c0-.56.108-1.062.323-1.51.218-.448.52-.798.907-1.053a2.221 2.221 0 011.257-.386c.706 0 1.264.241 1.676.725.415.48.623 1.137.623 1.97v.36h-4.146v.124c0 .66.188 1.209.564 1.65.38.436.855.654 1.428.654.344 0 .647-.062.908-.188a2.01 2.01 0 00.72-.601l.403.306c-.473.684-1.159 1.026-2.058 1.026zm-.118-5.478c-.483 0-.891.177-1.224.531-.33.355-.53.831-.602 1.429h3.486v-.07c-.018-.558-.177-1.013-.478-1.364-.3-.351-.695-.526-1.182-.526zm7.424-.44h.645v5.81h-.645v-4.774L85.266 60.1h-.64v-5.812h.64v4.78l3.136-4.78zm6.064 2.819c0-.559.108-1.062.323-1.51.218-.447.524-.794.918-1.041a2.473 2.473 0 011.348-.376c.774 0 1.4.272 1.88.816.48.54.72 1.259.72 2.154v.134a3.45 3.45 0 01-.328 1.52 2.414 2.414 0 01-.913 1.037 2.51 2.51 0 01-1.348.365c-.77 0-1.397-.27-1.88-.811-.48-.544-.72-1.264-.72-2.16v-.128zm.645.177c0 .695.179 1.266.537 1.713.362.444.834.666 1.418.666.58 0 1.05-.221 1.407-.666.362-.447.543-1.036.543-1.767v-.123c0-.444-.083-.85-.247-1.22a1.967 1.967 0 00-.693-.853 1.76 1.76 0 00-1.02-.306c-.574 0-1.041.225-1.403.676-.361.448-.542 1.035-.542 1.762v.118zm9.931-2.45h-2.116v5.265h-.645v-5.264h-2.035v-.548h4.796v.548zm9.516 5.265h-.644v-5.259h-3.132v5.259h-.644v-5.812h4.42v5.812zm6.452-2.847c0 .906-.2 1.626-.601 2.16-.401.529-.938.794-1.612.794-.794 0-1.403-.28-1.826-.838v2.965h-.639v-8.046h.596l.033.822c.418-.62 1.025-.93 1.82-.93.695 0 1.239.264 1.633.79.398.527.596 1.257.596 2.192v.09zm-.644-.113c0-.741-.152-1.326-.457-1.756-.304-.43-.728-.645-1.273-.645-.394 0-.732.095-1.015.285-.283.19-.499.465-.65.827v2.788a1.7 1.7 0 00.661.762 1.9 1.9 0 001.015.264c.541 0 .961-.215 1.262-.645.305-.433.457-1.06.457-1.88zm1.774-.032c0-.559.107-1.062.322-1.51.218-.447.524-.794.918-1.041a2.473 2.473 0 011.348-.376c.774 0 1.4.272 1.88.816.48.54.72 1.259.72 2.154v.134c0 .562-.109 1.069-.328 1.52a2.406 2.406 0 01-.913 1.037 2.51 2.51 0 01-1.348.365c-.77 0-1.396-.27-1.88-.811-.48-.544-.719-1.264-.719-2.16v-.128zm.644.177c0 .695.179 1.266.537 1.713.362.444.834.666 1.418.666.58 0 1.049-.221 1.407-.666.362-.447.543-1.036.543-1.767v-.123c0-.444-.083-.85-.247-1.22a1.971 1.971 0 00-.693-.853 1.758 1.758 0 00-1.021-.306c-.573 0-1.04.225-1.401.676-.362.448-.543 1.035-.543 1.762v.118zm9.75-2.997h.644v5.812h-.644v-4.775l-3.137 4.775h-.639v-5.812h.639v4.78l3.137-4.78zm5.829 1.536c0-.35-.131-.621-.392-.81-.262-.19-.622-.285-1.08-.285-.415 0-.772.107-1.069.322-.293.211-.44.48-.44.805h-.639c0-.483.206-.882.617-1.197.416-.315.926-.473 1.531-.473.666 0 1.185.143 1.558.43.372.286.558.693.558 1.219 0 .28-.086.532-.257.757-.172.226-.423.401-.752.527.744.204 1.117.666 1.117 1.385 0 .523-.203.937-.607 1.241-.405.304-.942.457-1.612.457-.648 0-1.185-.163-1.611-.49-.426-.325-.639-.751-.639-1.278h.645c0 .351.154.645.461.881.312.233.693.35 1.144.35.491 0 .874-.102 1.15-.307a.997.997 0 00.419-.843c0-.39-.127-.671-.381-.843-.255-.172-.643-.258-1.166-.258h-.886v-.559h.993c.892-.021 1.338-.365 1.338-1.03zm2.295 4.276v-5.812h2.132c.738 0 1.303.133 1.697.398.394.26.591.646.591 1.154 0 .29-.088.55-.263.78-.176.225-.432.39-.768.493.379.072.684.235.913.489.233.254.349.55.349.886 0 .512-.19.91-.569 1.193-.376.279-.91.419-1.601.419h-2.481zm.639-2.675v2.137h1.863c.484 0 .856-.093 1.118-.279.261-.186.392-.455.392-.806a.902.902 0 00-.392-.768c-.262-.19-.634-.284-1.118-.284h-1.863zm0-.537h1.627c1.01-.015 1.515-.358 1.515-1.032 0-.354-.14-.612-.419-.773-.276-.165-.686-.247-1.23-.247h-1.493v2.052zm5.147.22c0-.559.107-1.062.322-1.51.218-.447.524-.794.918-1.041a2.473 2.473 0 011.348-.376c.774 0 1.4.272 1.88.816.48.54.72 1.259.72 2.154v.134c0 .562-.109 1.069-.328 1.52a2.406 2.406 0 01-.913 1.037 2.51 2.51 0 01-1.348.365c-.77 0-1.396-.27-1.88-.811-.48-.544-.719-1.264-.719-2.16v-.128zm.644.177c0 .695.179 1.266.537 1.713.362.444.834.666 1.418.666.58 0 1.049-.221 1.407-.666.362-.447.543-1.036.543-1.767v-.123c0-.444-.083-.85-.247-1.22a1.971 1.971 0 00-.693-.853 1.758 1.758 0 00-1.021-.306c-.573 0-1.04.225-1.401.676-.362.448-.543 1.035-.543 1.762v.118zm5.41 2.272l.285-.37c.451-.613.71-1.508.779-2.686l.102-2.213h3.432v5.27h.601v2.25h-.639V60.1h-4.367v1.708h-.617l.005-2.25h.419zm.741 0h3.212v-4.667h-2.175l-.07 1.509c-.064 1.386-.387 2.438-.967 3.158zm9.573-5.269h.644v5.812h-.644v-4.775l-3.137 4.775h-.639v-5.812h.639v4.78l3.137-4.78zm6.597.548h-2.116V60.1h-.645v-5.264h-2.036v-.548h4.797v.548zm2.934 5.371c-.494 0-.942-.122-1.343-.365a2.495 2.495 0 01-.929-1.015 3.19 3.19 0 01-.333-1.467v-.23c0-.56.107-1.062.322-1.51a2.58 2.58 0 01.908-1.053 2.218 2.218 0 011.257-.386c.705 0 1.264.241 1.675.725.416.48.623 1.137.623 1.97v.36h-4.146v.124c0 .66.188 1.209.564 1.65.379.436.856.654 1.429.654.343 0 .646-.062.907-.188.265-.125.505-.325.72-.601l.403.306c-.473.684-1.159 1.026-2.057 1.026zm-.118-5.478c-.484 0-.892.177-1.225.531-.329.355-.53.831-.602 1.429h3.486v-.07c-.018-.558-.177-1.013-.478-1.364-.301-.351-.694-.526-1.181-.526zm8.074-.44v5.81h-.645v-5.258h-2.379l-.102 2.176c-.043.805-.124 1.421-.242 1.847-.118.423-.294.734-.526.935-.233.2-.543.3-.93.3h-.247v-.569l.199-.01c.369-.008.634-.187.795-.538.161-.35.267-.977.317-1.88l.118-2.814h3.642zm6.022 0v5.81h-.645v-2.34h-1.804l-1.418 2.342h-.709l1.461-2.423c-.398-.104-.708-.304-.93-.601a1.732 1.732 0 01-.327-1.053c0-.526.188-.947.564-1.262.379-.315.891-.473 1.536-.473h2.272zm-3.728 1.745c0 .34.108.62.323.838.218.218.521.33.907.338h1.853v-2.374h-1.643c-.448 0-.801.107-1.058.322-.255.215-.382.507-.382.876z" fill="#000"/><path fill="#4656E3" d="M157.884 12.759h9.851v29.554h-9.851z"/><path d="M187.438 22.61c-11.821 0-19.637 13.169-19.702 19.703h-9.852c0-9.85 9.852-29.554 29.554-29.554v9.852z" fill="#4D5EF6"/><path d="M146.161 12.76h-6.988c0 11.456 6.988 19.374 13.064 19.374 5.647 0 12.455-8.124 12.455-19.375h-6.808c0 4.23-3.217 11.78-5.648 11.78-2.43 0-6.075-7.466-6.075-11.78z" fill="#F64D4D"/><path d="M187.438 32.462c-11.821 0-19.637-13.169-19.702-19.703h-9.852c0 9.851 9.852 29.554 29.554 29.554v-9.851z" fill="#FE5F5F"/><path fill="#E34646" d="M136.31 12.759h9.851v29.554h-9.851z"/><path fill="#FE5F5F" d="M157.884.347h9.851v9.851h-9.851z"/><path d="M62.4 9.999h-2.132V4.054h-.046L57.866 9.9h-1.385l-2.35-5.846h-.052v5.945h-2.131V.477h2.797l2.402 6.117h.053L59.602.477h2.797V10zm7.099-2.092h-3.114l-.608 2.092H63.31l3.2-9.522h2.962l3.2 9.522H70.1l-.6-2.092zm-2.646-1.742h2.17l-1.055-3.668h-.053l-1.062 3.668zM77.476.477c1.443 0 2.563.405 3.359 1.215.8.818 1.2 1.981 1.2 3.49 0 1.518-.4 2.7-1.2 3.55-.8.844-1.92 1.267-3.359 1.267H73.59V.477h3.886zm-1.465 7.569h1.142c1.614 0 2.421-.953 2.421-2.857 0-.889-.21-1.573-.633-2.052-.422-.471-1.018-.706-1.788-.706H76.01v5.615zm13.738 1.953h-6.526V.477h6.526v1.954h-4.104v1.893h3.86v1.782h-3.86v1.94h4.104v1.953zm4.097 0V.477h2.422V10h-2.422zm3.867 0V.477h1.933l4.038 5.536h.053V.477h2.296V10h-1.913l-4.058-5.589h-.053V10h-2.296zm12.497 0V.477h2.421v4.184h.053l3.24-4.184h2.6l-3.319 4.23 3.51 5.292h-2.844l-2.428-3.722-.812 1.03v2.692h-2.421zM123.505.313c1.443 0 2.587.442 3.431 1.326.845.884 1.267 2.085 1.267 3.602 0 1.518-.422 2.717-1.267 3.596-.844.885-1.988 1.327-3.431 1.327-1.447 0-2.593-.442-3.437-1.327-.845-.88-1.267-2.078-1.267-3.596 0-1.517.424-2.718 1.273-3.602.845-.884 1.988-1.327 3.431-1.327zm0 1.966c-.677 0-1.218.266-1.623.798-.409.537-.614 1.258-.614 2.164 0 .902.203 1.621.608 2.158.404.532.947.798 1.629.798.678 0 1.219-.266 1.623-.798.41-.537.614-1.256.614-2.158 0-.906-.204-1.627-.614-2.164-.404-.532-.945-.798-1.623-.798zm8.301 2.731h1.432c.444 0 .791-.12 1.042-.362s.376-.57.376-.984c0-.409-.13-.736-.389-.983-.26-.25-.605-.376-1.036-.376h-1.425V5.01zm0 4.989h-2.422V.477h4.091c1.179 0 2.085.278 2.719.832.624.545.937 1.315.937 2.31a3.1 3.1 0 01-.423 1.61 2.55 2.55 0 01-1.201 1.081l1.901 3.69h-2.719l-1.63-3.332h-1.253V10zm13.064 0h-6.525V.477h6.525v1.954h-4.104v1.893h3.86v1.782h-3.86v1.94h4.104v1.953zm7.027-2.092h-3.114l-.607 2.092h-2.468l3.2-9.522h2.963l3.2 9.522h-2.573l-.601-2.092zm-2.646-1.742h2.171l-1.055-3.668h-.053l-1.063 3.668z" fill="#000"/></svg>