<svg width="151" height="35" fill="none" xmlns="http://www.w3.org/2000/svg"><path d="M0 10.703v23.754h7.845v-6.21h2.548c6.045 0 10.664-2.104 10.664-8.755 0-6.685-4.62-8.79-10.664-8.79H0zm13.28 8.789c0 1.629-1.155 2.307-2.955 2.307h-2.48V17.15h2.48c1.8 0 2.954.679 2.954 2.342zm10.136-8.789v23.754h18v-6.855H31.26v-16.9h-7.845zM49.66 34.457l1.052-3.156h8.219l1.019 3.156h7.947l-8.864-23.754H50.61l-8.898 23.754h7.947zm4.516-13.88c.238-.882.476-1.832.645-3.054a18.78 18.78 0 00.68 3.055l1.664 5.056h-4.653l1.664-5.056zm13.196 2.24C67.372 31.471 73.859 35 80.583 35c2.513 0 4.857-.475 6.963-1.425v-7.16c-1.223 1.085-3.499 1.696-5.944 1.696-3.124 0-6.181-1.56-6.181-5.294 0-4.241 3.09-5.87 6.35-5.87 2.107 0 4.28.712 5.605 1.629v-6.991c-2.106-.95-4.551-1.425-6.997-1.425-6.52 0-13.041 3.63-13.007 12.657zm23.04-12.114v23.754h18.203v-6.244H98.257v-2.817h8.932v-5.768h-8.932v-2.75h10.155v-6.175h-18z" fill="#fff"/><path fill="#4656E3" d="M127.191 10.643h7.936v23.809h-7.936z"/><path d="M151 18.579c-9.524 0-15.82 10.608-15.873 15.872h-7.936c0-7.936 7.936-23.809 23.809-23.809v7.937z" fill="#4D5EF6"/><path d="M117.747 10.642h-5.629c-.001 9.23 5.629 15.608 10.523 15.608 4.55 0 10.034-6.544 10.034-15.608h-5.484c0 3.407-2.592 9.49-4.55 9.49-1.958 0-4.894-6.015-4.894-9.49z" fill="#F64D4D"/><path d="M151 26.515c-9.524 0-15.82-10.608-15.873-15.872h-7.936c0 7.936 7.936 23.808 23.809 23.808v-7.936z" fill="#FE5F5F"/><path fill="#E34646" d="M109.811 10.643h7.936v23.809h-7.936z"/><path fill="#FE5F5F" d="M127.191.643h7.936v7.936h-7.936z"/><path d="M50.269 8.418h-1.717v-4.79h-.037l-1.898 4.71h-1.116l-1.893-4.71h-.042v4.79h-1.717V.748h2.254l1.935 4.927h.042L48.015.748h2.254v7.67zm5.719-1.685H53.48l-.489 1.685h-1.988L53.58.748h2.387l2.578 7.67h-2.073l-.484-1.685zM53.857 5.33h1.748l-.85-2.956h-.043l-.855 2.956zM62.415.748c1.162 0 2.064.326 2.705.978.645.659.968 1.596.968 2.812 0 1.222-.323 2.175-.968 2.86-.645.68-1.547 1.02-2.705 1.02h-3.131V.748h3.13zm-1.18 6.097h.92c1.3 0 1.95-.768 1.95-2.302 0-.716-.17-1.267-.51-1.653-.34-.38-.82-.569-1.44-.569h-.92v4.524zm11.067 1.573h-5.258V.748h5.258V2.32h-3.307v1.526h3.11v1.435h-3.11v1.563h3.306v1.573zm3.3 0V.748h1.951v7.67h-1.95zm3.115 0V.748h1.558l3.253 4.46h.042V.747h1.85v7.67h-1.54l-3.27-4.502h-.042v4.502h-1.85zm10.068 0V.748h1.95v3.37h.043l2.61-3.37h2.094L92.81 4.155l2.828 4.263h-2.291L91.389 5.42l-.653.83v2.168h-1.951zM99.496.615c1.162 0 2.083.356 2.764 1.068.68.712 1.02 1.68 1.02 2.902 0 1.223-.34 2.189-1.02 2.897-.681.713-1.602 1.069-2.764 1.069-1.166 0-2.09-.356-2.77-1.069-.68-.708-1.02-1.674-1.02-2.897 0-1.222.342-2.19 1.025-2.902.68-.712 1.602-1.068 2.765-1.068zm0 1.584a1.56 1.56 0 00-1.308.643c-.33.432-.494 1.013-.494 1.743 0 .727.163 1.306.489 1.739.326.428.763.643 1.313.643a1.56 1.56 0 001.307-.643c.33-.433.495-1.012.495-1.739 0-.73-.165-1.31-.495-1.743a1.56 1.56 0 00-1.307-.643zm6.687 2.201h1.153c.358 0 .638-.098.84-.293.202-.195.303-.459.303-.792 0-.33-.105-.594-.314-.792-.209-.202-.487-.303-.834-.303h-1.148V4.4zm0 4.018h-1.951V.748h3.295c.95 0 1.68.223 2.19.67.504.439.755 1.059.755 1.86 0 .482-.113.914-.34 1.297-.234.4-.556.69-.967.872l1.53 2.97h-2.19l-1.313-2.683h-1.009v2.684zm10.524 0h-5.257V.748h5.257V2.32h-3.306v1.526h3.11v1.435h-3.11v1.563h3.306v1.573zm5.661-1.685h-2.509l-.489 1.685h-1.988l2.578-7.67h2.387l2.578 7.67h-2.073l-.484-1.685zm-2.131-1.403h1.748l-.85-2.956h-.043l-.855 2.956z" fill="#fff"/></svg>