<svg width="17" height="16" fill="none" xmlns="http://www.w3.org/2000/svg"><path d="M16.51 12.432l-.929-2.704a6.78 6.78 0 00.687-2.959 6.717 6.717 0 00-1.941-4.743A6.712 6.712 0 009.619 0 6.707 6.707 0 004.73 1.979 6.702 6.702 0 002.752 6.67a4.926 4.926 0 00-1.495 6.051l-.64 1.863c-.11.32-.03.668.21.907a.873.873 0 00.907.21l1.863-.64c.654.31 1.377.474 2.105.475h.008a4.917 4.917 0 003.976-2.022 6.78 6.78 0 002.793-.683l2.704.929a1.038 1.038 0 001.078-.25c.285-.284.38-.697.25-1.078zm-10.8 2.152h-.006a3.978 3.978 0 01-1.85-.46.476.476 0 00-.378-.029l-1.91.656.657-1.91a.476.476 0 00-.03-.377A3.968 3.968 0 012.84 7.86c.23 1.404.9 2.697 1.937 3.716a6.723 6.723 0 003.719 1.865 3.96 3.96 0 01-2.786 1.143zm9.878-1.747a.086.086 0 01-.095.022l-2.896-.995a.478.478 0 00-.377.03 5.813 5.813 0 01-2.701.67h-.01c-3.151 0-5.755-2.56-5.805-5.711a5.762 5.762 0 011.7-4.2 5.763 5.763 0 014.2-1.7c3.154.05 5.716 2.658 5.711 5.815a5.818 5.818 0 01-.67 2.701.476.476 0 00-.03.377l.995 2.896a.086.086 0 01-.022.095z" fill="url(#paint0_linear)"/><path d="M12.346 4.234H6.672a.476.476 0 000 .953h5.674a.476.476 0 000-.953z" fill="url(#paint1_linear)"/><path d="M12.346 6.193H6.672a.476.476 0 000 .952h5.674a.476.476 0 000-.952z" fill="url(#paint2_linear)"/><path d="M10.162 8.151h-3.49a.476.476 0 000 .953h3.49a.476.476 0 000-.953z" fill="url(#paint3_linear)"/><defs><linearGradient id="paint0_linear" x1="-8.332" y1="-10.937" x2="19.592" y2="-7.566" gradientUnits="userSpaceOnUse"><stop stop-color="#F64D4D"/><stop offset="1" stop-color="#4D5EF6"/></linearGradient><linearGradient id="paint1_linear" x1="-8.332" y1="-10.937" x2="19.592" y2="-7.566" gradientUnits="userSpaceOnUse"><stop stop-color="#F64D4D"/><stop offset="1" stop-color="#4D5EF6"/></linearGradient><linearGradient id="paint2_linear" x1="-8.332" y1="-10.937" x2="19.592" y2="-7.566" gradientUnits="userSpaceOnUse"><stop stop-color="#F64D4D"/><stop offset="1" stop-color="#4D5EF6"/></linearGradient><linearGradient id="paint3_linear" x1="-8.332" y1="-10.937" x2="19.592" y2="-7.566" gradientUnits="userSpaceOnUse"><stop stop-color="#F64D4D"/><stop offset="1" stop-color="#4D5EF6"/></linearGradient></defs></svg>