<svg width="16" height="16" fill="none" xmlns="http://www.w3.org/2000/svg"><path d="M7.759 2.14l1.719 3.749 3.958.543-2.895 2.86.726 4.084-3.508-1.982-3.509 1.982.727-4.085-2.895-2.86L6.04 5.89l1.719-3.75z" fill="url(#paint0_linear)"/><path d="M15.166 6.244a.484.484 0 00-.273-.817l-4.633-.706L8.197.329a.484.484 0 00-.876 0L5.257 4.72l-4.633.706a.484.484 0 00-.273.817l3.367 3.448-.793 4.854a.484.484 0 00.712.502l4.122-2.276 4.121 2.276a.484.484 0 00.712-.502l-.793-4.854 3.367-3.448zM7.76 11.602l-3.746 2.1.715-4.237-3.224-3.291 4.361-.568L7.76 1.571l1.876 4.035 4.347.617-3.193 3.258.668 4.237-3.698-2.116z" fill="#000"/><defs><linearGradient id="paint0_linear" x1="-4.234" y1="-5.663" x2="15.585" y2="-3.284" gradientUnits="userSpaceOnUse"><stop stop-color="#F64D4D"/><stop offset="1" stop-color="#4D5EF6"/></linearGradient></defs></svg>