<svg width="17" height="16" viewBox="0 0 17 16" fill="none" xmlns="http://www.w3.org/2000/svg">
<path d="M12.5 0.15918C10.7641 0.15918 9.45052 1.17794 8.33333 2.24251C7.26876 1.11283 5.90262 0.15918 4.16667 0.15918C1.72187 0.15918 0 2.26125 0 4.55346C0 5.78314 0.503649 6.66909 1.0552 7.50085L7.53072 15.2644C8.25782 16.0337 8.3948 16.0337 9.12187 15.2644L15.612 7.50085C16.2604 6.66909 16.6667 5.78314 16.6667 4.55346C16.6667 2.26128 14.9448 0.15918 12.5 0.15918ZM14.5833 7.28524L8.33333 14.7425L2.08333 7.25449C1.33595 6.21544 1.04167 5.51441 1.04167 4.55346C1.04167 2.76283 2.32032 1.15085 4.16667 1.13573C5.68543 1.12323 7.40678 2.67427 8.33333 3.84355C9.23543 2.7149 10.9812 1.13573 12.5 1.13573C14.2974 1.13573 15.625 2.76283 15.625 4.55346C15.625 5.51441 15.3922 6.26751 14.5833 7.28524Z" fill="black"/>
</svg>
