<svg width="151" height="35" viewBox="0 0 151 35" fill="none" xmlns="http://www.w3.org/2000/svg">
<path d="M0 10.7026V34.457H7.84531V28.2469H10.3925C16.4378 28.2469 21.0567 26.143 21.0567 19.4917C21.0567 12.8066 16.4378 10.7026 10.3925 10.7026H0ZM13.2793 19.4917C13.2793 21.1206 12.1246 21.7993 10.3246 21.7993H7.84531V17.1502H10.3246C12.1246 17.1502 13.2793 17.8289 13.2793 19.4917Z" fill="white"/>
<path d="M23.4155 10.7026V34.457H41.4155V27.6022H31.2608V10.7026H23.4155Z" fill="white"/>
<path d="M49.6591 34.457L50.7119 31.3011H58.9308L59.9497 34.457H67.8969L59.0327 10.7026H50.6101L41.7119 34.457H49.6591ZM54.1761 20.5777C54.4138 19.6954 54.6516 18.7452 54.8214 17.5235C54.9912 18.7452 55.2289 19.6954 55.5006 20.5777L57.1648 25.6339H52.512L54.1761 20.5777Z" fill="white"/>
<path d="M67.3718 22.8174C67.3718 31.4707 73.8587 35 80.5832 35C83.0964 35 85.4398 34.5249 87.5455 33.5747V26.4144C86.3228 27.5004 84.0474 28.1112 81.6021 28.1112C78.4775 28.1112 75.4209 26.5502 75.4209 22.8174C75.4209 18.5755 78.5115 16.9466 81.7719 16.9466C83.8776 16.9466 86.0512 17.6593 87.3757 18.5755V11.5849C85.27 10.6348 82.8247 10.1597 80.3794 10.1597C73.8587 10.1597 67.3379 13.7907 67.3718 22.8174Z" fill="white"/>
<path d="M90.4116 10.7026V34.457H108.615V28.213H98.2569V25.3964H107.189V19.6275H98.2569V16.8788H108.412V10.7026H90.4116Z" fill="white"/>
<rect x="127.191" y="10.6426" width="7.93625" height="23.8088" fill="#4656E3"/>
<path d="M151 18.5787C141.476 18.5787 135.18 29.1868 135.127 34.4512H127.191C127.191 26.5149 135.127 10.6424 151 10.6424V18.5787Z" fill="#4D5EF6"/>
<path d="M117.747 10.6421L112.118 10.6421C112.117 19.8717 117.747 26.2503 122.641 26.2503C127.191 26.2503 132.675 19.7055 132.675 10.6421L127.191 10.6421C127.191 14.049 124.599 20.132 122.641 20.132C120.683 20.132 117.747 14.1175 117.747 10.6421Z" fill="#F64D4D"/>
<path d="M151 26.5151C141.476 26.5151 135.18 15.907 135.127 10.6426H127.191C127.191 18.5788 135.127 34.4514 151 34.4514V26.5151Z" fill="#FE5F5F"/>
<rect x="109.811" y="10.6426" width="7.93625" height="23.8088" fill="#E34646"/>
<rect x="127.191" y="0.642578" width="7.93625" height="7.93625" fill="#FE5F5F"/>
<path d="M50.2688 8.4179H48.5518V3.62864H48.5146L46.617 8.33817H45.5007L43.6084 3.62864H43.5659V8.4179H41.849V0.747634H44.1028L46.0376 5.6751H46.0801L48.015 0.747634H50.2688V8.4179Z" fill="white"/>
<path d="M55.9882 6.73289H53.4793L52.9903 8.4179H51.0023L53.5803 0.747634H55.967L58.545 8.4179H56.4719L55.9882 6.73289ZM53.8567 5.3296H55.6055L54.755 2.37418H54.7125L53.8567 5.3296Z" fill="white"/>
<path d="M62.4147 0.747634C63.577 0.747634 64.4789 1.07365 65.1203 1.72569C65.7652 2.38481 66.0877 3.32211 66.0877 4.53759C66.0877 5.76015 65.7652 6.7134 65.1203 7.39733C64.4753 8.07771 63.5735 8.4179 62.4147 8.4179H59.2838V0.747634H62.4147ZM61.2346 6.84451H62.1542C63.4547 6.84451 64.105 6.07731 64.105 4.5429C64.105 3.82708 63.9349 3.27604 63.5947 2.88978C63.2545 2.51061 62.7744 2.32102 62.1542 2.32102H61.2346V6.84451Z" fill="white"/>
<path d="M72.3015 8.4179H67.0445V0.747634H72.3015V2.32102H68.9953V3.84657H72.1048V5.28176H68.9953V6.84451H72.3015V8.4179Z" fill="white"/>
<path d="M75.6024 8.4179V0.747634H77.5532V8.4179H75.6024Z" fill="white"/>
<path d="M78.7173 8.4179V0.747634H80.2748L83.5278 5.20734H83.5704V0.747634H85.4202V8.4179H83.8787L80.6096 3.91567H80.5671V8.4179H78.7173Z" fill="white"/>
<path d="M88.7849 8.4179V0.747634H90.7357V4.11766H90.7782L93.3881 0.747634H95.4824L92.8087 4.15487L95.6366 8.4179H93.3456L91.3895 5.41996L90.7357 6.24918V8.4179H88.7849Z" fill="white"/>
<path d="M99.4956 0.614746C100.658 0.614746 101.579 0.970885 102.26 1.68316C102.94 2.39544 103.28 3.36286 103.28 4.58543C103.28 5.80799 102.94 6.77364 102.26 7.48237C101.579 8.19465 100.658 8.55079 99.4956 8.55079C98.3297 8.55079 97.4066 8.19465 96.7262 7.48237C96.0458 6.77364 95.7057 5.80799 95.7057 4.58543C95.7057 3.36286 96.0476 2.39544 96.7315 1.68316C97.4119 0.970885 98.3333 0.614746 99.4956 0.614746ZM99.4956 2.19877C98.9499 2.19877 98.514 2.41316 98.188 2.84194C97.8584 3.27427 97.6937 3.85543 97.6937 4.58543C97.6937 5.31188 97.8567 5.89127 98.1827 6.32359C98.5087 6.75238 98.9463 6.96677 99.4956 6.96677C100.041 6.96677 100.477 6.75238 100.803 6.32359C101.133 5.89127 101.298 5.31188 101.298 4.58543C101.298 3.85543 101.133 3.27427 100.803 2.84194C100.477 2.41316 100.041 2.19877 99.4956 2.19877Z" fill="white"/>
<path d="M106.183 4.39938H107.336C107.694 4.39938 107.974 4.30193 108.176 4.10703C108.378 3.91213 108.479 3.64813 108.479 3.31502C108.479 2.98546 108.374 2.72146 108.165 2.52301C107.956 2.32102 107.678 2.22003 107.331 2.22003H106.183V4.39938ZM106.183 8.4179H104.232V0.747634H107.527C108.477 0.747634 109.207 0.970885 109.717 1.41739C110.221 1.8568 110.472 2.47694 110.472 3.27781C110.472 3.75975 110.359 4.19208 110.132 4.57479C109.898 4.97523 109.576 5.26581 109.165 5.44654L110.695 8.4179H108.505L107.192 5.73357H106.183V8.4179Z" fill="white"/>
<path d="M116.707 8.4179H111.45V0.747634H116.707V2.32102H113.401V3.84657H116.511V5.28176H113.401V6.84451H116.707V8.4179Z" fill="white"/>
<path d="M122.368 6.73289H119.859L119.37 8.4179H117.382L119.96 0.747634H122.347L124.925 8.4179H122.852L122.368 6.73289ZM120.237 5.3296H121.985L121.135 2.37418H121.092L120.237 5.3296Z" fill="white"/>
</svg>
